<?xml version="1.0" encoding="UTF-8" standalone="no"?>
<svg
   xmlns:dc="http://purl.org/dc/elements/1.1/"
   xmlns:cc="http://creativecommons.org/ns#"
   xmlns:rdf="http://www.w3.org/1999/02/22-rdf-syntax-ns#"
   xmlns:svg="http://www.w3.org/2000/svg"
   xmlns="http://www.w3.org/2000/svg"
   xmlns:sodipodi="http://sodipodi.sourceforge.net/DTD/sodipodi-0.dtd"
   xmlns:inkscape="http://www.inkscape.org/namespaces/inkscape"
   version="1.1"
   id="svg2"
   xml:space="preserve"
   width="484.13513"
   height="153.51132"
   viewBox="0 0 484.13513 153.51132"
   sodipodi:docname="logo_full_orange.svg"
   inkscape:version="0.92.4 (5da689c313, 2019-01-14)"><metadata
     id="metadata8"><rdf:RDF><cc:Work
         rdf:about=""><dc:format>image/svg+xml</dc:format><dc:type
           rdf:resource="http://purl.org/dc/dcmitype/StillImage" /><dc:title></dc:title></cc:Work></rdf:RDF></metadata><defs
     id="defs6" /><sodipodi:namedview
     pagecolor="#ffffff"
     bordercolor="#666666"
     borderopacity="1"
     objecttolerance="10"
     gridtolerance="10"
     guidetolerance="10"
     inkscape:pageopacity="0"
     inkscape:pageshadow="2"
     inkscape:window-width="2560"
     inkscape:window-height="1361"
     id="namedview4"
     showgrid="false"
     fit-margin-left="-0.1"
     fit-margin-top="0"
     fit-margin-right="0"
     fit-margin-bottom="0"
     inkscape:zoom="1.6243376"
     inkscape:cx="398.1206"
     inkscape:cy="215.12247"
     inkscape:window-x="1341"
     inkscape:window-y="354"
     inkscape:window-maximized="1"
     inkscape:current-layer="g12" /><g
     id="g10"
     inkscape:groupmode="layer"
     inkscape:label="ink_ext_XXXXXX"
     transform="matrix(1.3333333,0,0,-1.3333333,-0.00882733,153.40449)"><g
       id="g12"
       transform="scale(0.1)"
       style="stroke:#000000;stroke-opacity:1"><path
         d="M 1011.12,1041.21 C 665.34,1144.67 348.301,1087.83 60,870.68"
         style="fill:none;stroke:#fdb214;stroke-width:120;stroke-linecap:round;stroke-linejoin:round;stroke-miterlimit:10;stroke-dasharray:none;stroke-opacity:1"
         id="path14"
         inkscape:connector-curvature="0" /><path
         d="M 486.426,304.859 659.359,101.801 c 18.516,-21.7424 53.614,-15.2815 63.184,11.621 L 989.254,863.25 C 681.063,953.969 399.098,902.121 143.344,707.691"
         style="fill:none;stroke:#fdb214;stroke-width:120;stroke-linecap:round;stroke-linejoin:round;stroke-miterlimit:10;stroke-dasharray:none;stroke-opacity:1"
         id="path16"
         inkscape:connector-curvature="0" /><path
         d="m 2392.8,571.469 c 11.66,-126.668 -90.36,-239.617 -227.85,-252.258 -137.5,-12.66 -258.42,79.769 -270.07,206.437 -11.66,126.672 90.35,239.614 227.85,252.274 137.5,12.648 258.42,-79.781 270.07,-206.453 z"
         style="fill:none;stroke:#fdb214;stroke-width:120;stroke-linecap:round;stroke-linejoin:round;stroke-miterlimit:10;stroke-dasharray:none;stroke-opacity:1"
         id="path18"
         inkscape:connector-curvature="0" /><path
         d="m 3127.74,401.832 c -14.49,157.449 73.14,294.238 195.72,305.52 122.57,11.277 232.29,-94.383 246.77,-251.84"
         style="fill:none;stroke:#fdb214;stroke-width:120;stroke-linecap:round;stroke-linejoin:round;stroke-miterlimit:10;stroke-dasharray:none;stroke-opacity:1"
         id="path20"
         inkscape:connector-curvature="0" /><path
         d="m 2967.83,297.449 c -21.6,-121.187 -137.35,-201.9177 -258.54,-180.308 -121.18,21.597 -201.92,137.351 -180.31,258.539 21.61,121.179 137.36,201.91 258.54,180.3 121.19,-21.601 201.91,-137.351 180.31,-258.531 z"
         style="fill:none;stroke:#fdb214;stroke-width:120;stroke-linecap:round;stroke-linejoin:round;stroke-miterlimit:10;stroke-dasharray:none;stroke-opacity:1"
         id="path22"
         inkscape:connector-curvature="0" /><path
         d="m 2081.88,123.281 c -170.74,-35.1013 -437.53,83.66 -482.36,301.75 -44.84,218.071 149.25,452.891 320,487.989"
         style="fill:none;stroke:#fdb214;stroke-width:120;stroke-linecap:round;stroke-linejoin:round;stroke-miterlimit:10;stroke-dasharray:none;stroke-opacity:1"
         id="path24"
         inkscape:connector-curvature="0" /><path
         d="m 920.934,75.8906 166.716,435.5504 127.77,333.797 c 17.31,45.231 57.67,44.192 72.65,-1.847 L 1398.62,503.488 1542.88,60.0117"
         style="fill:none;stroke:#fdb214;stroke-width:120;stroke-linecap:round;stroke-linejoin:round;stroke-miterlimit:10;stroke-dasharray:none;stroke-opacity:1"
         id="path26"
         inkscape:connector-curvature="0" /><path
         d="m 3307.07,918.43 -125.51,-72.559 -96.19,-55.621 c -13.04,-7.539 -14.62,-5.199 -2.86,4.191 l 86.8,69.368 113.25,90.523 z"
         style="fill:none;stroke:#fdb214;stroke-width:120;stroke-linecap:round;stroke-linejoin:round;stroke-miterlimit:10;stroke-dasharray:none;stroke-opacity:1"
         id="path28"
         inkscape:connector-curvature="0" /><path
         d="M 2636.39,955.512 2534.69,386.859"
         style="fill:none;stroke:#fdb214;stroke-width:120;stroke-linecap:round;stroke-linejoin:round;stroke-miterlimit:10;stroke-dasharray:none;stroke-opacity:1"
         id="path30"
         inkscape:connector-curvature="0" /><path
         d="M 3570.23,455.512 3127.91,408.5 c 5.91,-278.969 248.96,-343.9805 424.06,-213.441"
         style="fill:none;stroke:#fdb214;stroke-width:120;stroke-linecap:round;stroke-linejoin:round;stroke-miterlimit:10;stroke-dasharray:none;stroke-opacity:1"
         id="path32"
         inkscape:connector-curvature="0" /></g></g></svg>
